<svg xmlns="http://www.w3.org/2000/svg" width="256" height="256" viewBox="0 0 256 256" role="img" aria-labelledby="title">
  <title id="title">qitu</title>
  <style>
    .form {
      fill: oklch(0.198 0.016 256.8);
    }

    .bg {
      fill: oklch(0.977 0.004 236.5);
    }

    .accent {
      fill: oklch(0.633 0.222 6.9);
    }

    @media (prefers-color-scheme: dark) {
      .bg {
        fill: oklch(0.194 0.031 269.3);
      }

      .form {
        fill: oklch(0.977 0.004 236.5);
      }

      .accent {
        fill: oklch(0.701 0.151 4.4);
      }
    }
  </style>
  <rect class="bg" x="20" y="20" width="216" height="216" rx="48" />
  <path
    class="form"
    d="M68 126L108 58C114 47 124 41 136 41H171C178 41 182 48 178 54L142 106C136 118 127 125 114 130C99 136 84 141 69 141C65 141 63 137 65 133L68 126Z"
  />
  <path
    class="form"
    d="M68 151C88 151 105 159 119 176L148 213C154 221 148 231 138 231H107C98 231 91 227 86 220L58 178C52 169 48 160 45 154C44 152 46 151 49 151H68Z"
  />
  <path
    class="form"
    d="M151 145C160 140 166 132 171 122C174 117 178 114 184 111L188 103C196 98 205 105 200 114L161 182L132 150C128 145 135 143 151 145Z"
  />
  <circle class="accent" cx="153" cy="124" r="14" />
</svg>
